<svg width="32" height="32" viewBox="0 0 32 32" fill="none" xmlns="http://www.w3.org/2000/svg">
<circle cx="16" cy="16" r="16" fill="#1E1E1E"/>
<path d="M26.2826 22.5714C25.7603 22.5714 25.3384 22.4066 25.017 22.077C24.7057 21.7356 24.55 21.306 24.55 20.788C24.55 20.2701 24.7057 19.8404 25.017 19.4991C25.3384 19.1577 25.7603 18.987 26.2826 18.987C26.7948 18.987 27.2066 19.1577 27.5179 19.4991C27.8393 19.8404 28 20.2701 28 20.788C28 21.2942 27.8393 21.718 27.5179 22.0594C27.2066 22.4007 26.7948 22.5714 26.2826 22.5714Z" fill="#17C4EC"/>
<path d="M25.7 9.42856L21.5845 18.3955V22.5714H18.3154V18.3955L14.2 9.42856H17.9172L19.9749 14.4993L22.0326 9.42856H25.7Z" fill="#D94E16"/>
<path d="M14.2 13.8095C14.2 14.6049 14.0348 15.332 13.7045 15.9907C13.3852 16.6369 12.8952 17.1589 12.2345 17.5566C11.5848 17.9419 10.7865 18.1345 9.8395 18.1345H8.23734V22.5714H5V9.42856H9.8395C10.7755 9.42856 11.5683 9.61498 12.218 9.98783C12.8786 10.3607 13.3741 10.8764 13.7045 11.5351C14.0348 12.1938 14.2 12.952 14.2 13.8095ZM9.52567 15.2263C10.4396 15.2263 10.8966 14.7541 10.8966 13.8095C10.8966 12.8525 10.4396 12.374 9.52567 12.374H8.23734V15.2263H9.52567Z" fill="#D94E16"/>
</svg>
