<svg width="187" height="23" viewBox="0 0 187 23" fill="none" xmlns="http://www.w3.org/2000/svg">
<path d="M180.68 22L176.242 13.944H174.996V22H169.797V0.659191H178.522C180.204 0.659191 181.633 0.953058 182.808 1.54079C184.004 2.12852 184.896 2.93919 185.484 3.97279C186.071 4.98612 186.365 6.12106 186.365 7.37759C186.365 8.79626 185.96 10.0629 185.149 11.1776C184.359 12.2923 183.183 13.0827 181.623 13.5488L186.548 22H180.68ZM174.996 10.2656H178.218C179.171 10.2656 179.88 10.0325 180.346 9.56639C180.832 9.10026 181.076 8.44159 181.076 7.59039C181.076 6.77972 180.832 6.14133 180.346 5.67519C179.88 5.20906 179.171 4.97599 178.218 4.97599H174.996V10.2656Z" fill="#17C4EC"/>
<path d="M159.157 4.82399V9.14079H166.118V13.1536H159.157V17.8352H167.03V22H153.958V0.659191H167.03V4.82399H159.157Z" fill="#17C4EC"/>
<path d="M150.798 22H145.6L136.905 8.83679V22H131.707V0.659191H136.905L145.6 13.8832V0.659191H150.798V22Z" fill="#17C4EC"/>
<path d="M128.547 22H123.348L114.654 8.83679V22H109.456V0.659191H114.654L123.348 13.8832V0.659191H128.547V22Z" fill="#17C4EC"/>
<path d="M100.934 18.2304H92.9695L91.6927 22H86.2511L93.9727 0.659191H99.9919L107.713 22H102.211L100.934 18.2304ZM99.5967 14.2176L96.9519 6.40479L94.3375 14.2176H99.5967Z" fill="#17C4EC"/>
<path d="M64.2196 11.2992C64.2196 9.19146 64.6756 7.31679 65.5876 5.67519C66.4996 4.01333 67.7663 2.72639 69.3876 1.81439C71.0292 0.882126 72.8836 0.415993 74.9508 0.415993C77.4842 0.415993 79.6527 1.08479 81.4564 2.42239C83.2602 3.75999 84.466 5.58399 85.074 7.89439H79.3588C78.9332 7.00266 78.3252 6.32373 77.5348 5.85759C76.7647 5.39146 75.8831 5.15839 74.89 5.15839C73.289 5.15839 71.9919 5.71573 70.9988 6.83039C70.0058 7.94506 69.5092 9.43466 69.5092 11.2992C69.5092 13.1637 70.0058 14.6533 70.9988 15.768C71.9919 16.8827 73.289 17.44 74.89 17.44C75.8831 17.44 76.7647 17.2069 77.5348 16.7408C78.3252 16.2747 78.9332 15.5957 79.3588 14.704H85.074C84.466 17.0144 83.2602 18.8384 81.4564 20.176C79.6527 21.4933 77.4842 22.152 74.9508 22.152C72.8836 22.152 71.0292 21.696 69.3876 20.784C67.7663 19.8517 66.4996 18.5648 65.5876 16.9232C64.6756 15.2816 64.2196 13.4069 64.2196 11.2992Z" fill="#17C4EC"/>
<path d="M54.7277 22.2128C53.1672 22.2128 51.7688 21.9595 50.5325 21.4528C49.2962 20.9461 48.3032 20.1963 47.5533 19.2032C46.8237 18.2101 46.4386 17.0144 46.3981 15.616H51.9309C52.012 16.4064 52.2856 17.0144 52.7517 17.44C53.2178 17.8453 53.8258 18.048 54.5757 18.048C55.3458 18.048 55.9538 17.8757 56.3997 17.5312C56.8456 17.1664 57.0685 16.6699 57.0685 16.0416C57.0685 15.5147 56.8861 15.0789 56.5213 14.7344C56.1768 14.3899 55.741 14.1061 55.2141 13.8832C54.7074 13.6603 53.9778 13.4069 53.0253 13.1232C51.6472 12.6976 50.5224 12.272 49.6509 11.8464C48.7794 11.4208 48.0296 10.7925 47.4013 9.96159C46.773 9.13066 46.4589 8.04639 46.4589 6.70879C46.4589 4.72266 47.1784 3.17226 48.6173 2.05759C50.0562 0.922661 51.9309 0.355194 54.2413 0.355194C56.5922 0.355194 58.4872 0.922661 59.9261 2.05759C61.365 3.17226 62.1352 4.73279 62.2365 6.73919H56.6125C56.572 6.05013 56.3186 5.51306 55.8525 5.12799C55.3864 4.72266 54.7885 4.51999 54.0589 4.51999C53.4306 4.51999 52.924 4.69226 52.5389 5.03679C52.1538 5.36106 51.9613 5.83733 51.9613 6.46559C51.9613 7.15466 52.2856 7.69173 52.9341 8.07679C53.5826 8.46186 54.596 8.87733 55.9741 9.32319C57.3522 9.78933 58.4669 10.2352 59.3181 10.6608C60.1896 11.0864 60.9394 11.7045 61.5677 12.5152C62.196 13.3259 62.5101 14.3696 62.5101 15.6464C62.5101 16.8624 62.196 17.9669 61.5677 18.96C60.9597 19.9531 60.068 20.7435 58.8925 21.3312C57.717 21.9189 56.3288 22.2128 54.7277 22.2128Z" fill="#17C4EC"/>
<path d="M41.4664 22.2432C40.5544 22.2432 39.8046 21.9797 39.2168 21.4528C38.6494 20.9056 38.3656 20.2368 38.3656 19.4464C38.3656 18.6357 38.6494 17.9568 39.2168 17.4096C39.8046 16.8624 40.5544 16.5888 41.4664 16.5888C42.3582 16.5888 43.0878 16.8624 43.6552 17.4096C44.243 17.9568 44.5368 18.6357 44.5368 19.4464C44.5368 20.2368 44.243 20.9056 43.6552 21.4528C43.0878 21.9797 42.3582 22.2432 41.4664 22.2432Z" fill="#D94E16"/>
<path d="M37.5479 0.659191L30.1607 14.9472V22H24.9623V14.9472L17.5751 0.659191H23.4727L27.6071 9.59679L31.7111 0.659191H37.5479Z" fill="#D94E16"/>
<path d="M17.1488 7.52959C17.1488 8.76586 16.8651 9.90079 16.2976 10.9344C15.7301 11.9477 14.8587 12.7685 13.6832 13.3968C12.5077 14.0251 11.0485 14.3392 9.3056 14.3392H6.0832V22H0.884796V0.659191H9.3056C11.008 0.659191 12.4469 0.953058 13.6224 1.54079C14.7979 2.12852 15.6795 2.93919 16.2672 3.97279C16.8549 5.00639 17.1488 6.19199 17.1488 7.52959ZM8.9104 10.2048C9.90346 10.2048 10.6432 9.97172 11.1296 9.50559C11.616 9.03946 11.8592 8.38079 11.8592 7.52959C11.8592 6.67839 11.616 6.01973 11.1296 5.55359C10.6432 5.08746 9.90346 4.85439 8.9104 4.85439H6.0832V10.2048H8.9104Z" fill="#D94E16"/>
</svg>
