<svg id="Camada_1" data-name="Camada 1" fill="#87B5BF" xmlns="http://www.w3.org/2000/svg" viewBox="0 0 177.87 176.03"><title>upload-files</title><path d="M117.87,78v5a4,4,0,0,0,4,4h43v76h-136V69h34a4,4,0,0,0,4-4V60a4,4,0,0,0-4-4h-43a4,4,0,0,0-4,4V172a4,4,0,0,0,4,4h154a4,4,0,0,0,4-4V78a4,4,0,0,0-4-4h-52A4,4,0,0,0,117.87,78Z"/><path d="M172.22,176H19.82a4,4,0,0,1-3.89-3.09l-15.82-68A4,4,0,0,1,4,100H156.39a4,4,0,0,1,3.9,3.1l15.82,68A4,4,0,0,1,172.22,176Z"/><path d="M127.08,33.2l-32-32a3.92,3.92,0,0,0-5.57,0l-32,32A4,4,0,0,0,60.21,40H75.3a.15.15,0,0,1,.14.14V78a4,4,0,0,0,4,4h25.73a4,4,0,0,0,3.95-4V40.17a.15.15,0,0,1,.14-.14H124.3A4,4,0,0,0,127.08,33.2Z"/></svg>